<svg width="512" height="512" viewBox="0 0 512 512" fill="none" xmlns="http://www.w3.org/2000/svg">
  <!-- Background circle -->
  <circle cx="256" cy="256" r="240" fill="#3b82f6"/>
  
  <!-- Music note icon -->
  <path d="M180 350c0 22.091 17.909 40 40 40s40-17.909 40-40-17.909-40-40-40-40 17.909-40 40z" fill="white"/>
  <path d="M292 310c0 22.091 17.909 40 40 40s40-17.909 40-40-17.909-40-40-40-40 17.909-40 40z" fill="white"/>
  <path d="M260 150v200c0 5.523-4.477 10-10 10s-10-4.477-10-10V170l80-20v140c0 5.523-4.477 10-10 10s-10-4.477-10-10V150c0-5.523 4.477-10 10-10s10 4.477 10 10z" fill="white"/>
  
  <!-- Sheet music lines -->
  <rect x="120" y="200" width="272" height="2" fill="white" opacity="0.7"/>
  <rect x="120" y="220" width="272" height="2" fill="white" opacity="0.7"/>
  <rect x="120" y="240" width="272" height="2" fill="white" opacity="0.7"/>
  <rect x="120" y="260" width="272" height="2" fill="white" opacity="0.7"/>
  <rect x="120" y="280" width="272" height="2" fill="white" opacity="0.7"/>
  
  <!-- Chord symbols -->
  <text x="160" y="195" font-family="system-ui, sans-serif" font-size="20" font-weight="bold" fill="white">C</text>
  <text x="200" y="195" font-family="system-ui, sans-serif" font-size="20" font-weight="bold" fill="white">G</text>
  <text x="240" y="195" font-family="system-ui, sans-serif" font-size="20" font-weight="bold" fill="white">Am</text>
  <text x="280" y="195" font-family="system-ui, sans-serif" font-size="20" font-weight="bold" fill="white">F</text>
</svg>
